<svg xmlns="http://www.w3.org/2000/svg" xmlns:xlink="http://www.w3.org/1999/xlink" width="20" height="20" viewBox="0 0 20 20"><defs><path id="u8zqa" d="M73.14 612.82c1.03.5 2.42 1.07 3.96 1.17l.28.01c1.04 0 1.87-.36 2.55-1.09.26-.31.53-.57.82-.85l.59-.58c.88-.92.88-2.09-.01-2.98l-2.5-2.49a2.03 2.03 0 0 0-1.47-.67 2.1 2.1 0 0 0-1.48.67l-1.49 1.48-.4-.22a5.09 5.09 0 0 1-.47-.24 15.74 15.74 0 0 1-3.76-3.42c-.6-.75-1-1.38-1.27-2.02a25.1 25.1 0 0 0 1.49-1.47c.45-.45.7-.96.7-1.5a2.1 2.1 0 0 0-.7-1.48l-1.24-1.24-.42-.43-.85-.83a2.08 2.08 0 0 0-1.46-.64c-.53 0-1.04.22-1.48.64l-1.56 1.55a3.18 3.18 0 0 0-.95 2.04c-.08 1 .1 2.04.58 3.32.72 1.97 1.82 3.8 3.45 5.74a21.29 21.29 0 0 0 7.09 5.53z"/></defs><g><g transform="translate(-62 -594)"><use fill="#f2f2f2" xlink:href="#u8zqa"/></g></g></svg>